<svg xmlns="http://www.w3.org/2000/svg" xmlns:svg="http://www.w3.org/2000/svg" xmlns:xlink="http://www.w3.org/1999/xlink" id="svg5453" width="51.2" height="51.2" version="1.1" viewBox="0 0 48 48"><defs id="defs5455"><linearGradient id="linearGradient5623"><stop id="stop5625" offset="0" stop-color="#d35400" stop-opacity="1"/><stop id="stop5627" offset="1" stop-color="#d35400" stop-opacity="1"/></linearGradient><linearGradient id="linearGradient3819"><stop id="stop3821" offset="0" stop-color="#eff0f1" stop-opacity="1"/><stop id="stop3823" offset="1" stop-color="#bdc3c7" stop-opacity="1"/></linearGradient><linearGradient id="linearGradient3825" x1="24" x2="24" y1="20" y2="44" gradientTransform="translate(384.57143,499.798)" gradientUnits="userSpaceOnUse" xlink:href="#linearGradient3819"/><linearGradient id="linearGradient3843" x1="10" x2="15" y1="36" y2="41" gradientTransform="translate(384.57143,500.798)" gradientUnits="userSpaceOnUse" xlink:href="#linearGradient4227"/><linearGradient id="linearGradient3847" x1="9.905" x2="14.905" y1="36" y2="41" gradientTransform="translate(398.66666,500.798)" gradientUnits="userSpaceOnUse" xlink:href="#linearGradient4227"/><linearGradient id="linearGradient3948" x1="25.065" x2="25" y1="33.844" y2="10" gradientTransform="matrix(1,0,0,1.0833332,384.57143,492.96467)" gradientUnits="userSpaceOnUse" xlink:href="#linearGradient5623"/><linearGradient id="linearGradient3080" x1="8.525" x2="25.2" y1="7.8" y2="25.2" gradientTransform="matrix(1.3793103,0,0,1.3793103,384.81281,499.0393)" gradientUnits="userSpaceOnUse" xlink:href="#linearGradient4227"/><linearGradient id="linearGradient4227"><stop id="stop4229" offset="0" stop-color="#292c2f" stop-opacity="1"/><stop id="stop4231" offset="1" stop-color="#000" stop-opacity="0"/></linearGradient><filter id="filter3845" color-interpolation-filters="sRGB"><feFlood id="feFlood3847" flood-color="#000" flood-opacity=".5" result="flood"/><feComposite id="feComposite3849" in="flood" in2="SourceGraphic" operator="in" result="composite1"/><feGaussianBlur id="feGaussianBlur3851" result="blur" stdDeviation="6"/><feOffset id="feOffset3853" dx="0" dy="4" result="offset"/><feComposite id="feComposite3855" in="SourceGraphic" in2="offset" operator="over" result="composite2"/></filter></defs><metadata id="metadata5458"/><g id="layer1" transform="translate(-384.57143,-499.798)"><rect id="rect3936" width="32" height="26" x="392.571" y="503.798" fill="url(#linearGradient3948)" fill-opacity="1" stroke="none" ry="0"/><path id="path3911" fill="#232629" fill-opacity="1" stroke="none" d="m 408.57143,533.798 c -1.662,0 -3,1.338 -3,3 0,1.662 1.338,3 3,3 1.30536,0 2.39817,-0.84052 2.8125,-2 h 8.375 c 0.41433,1.15948 1.50714,2 2.8125,2 1.662,0 3,-1.338 3,-3 0,-1.662 -1.338,-3 -3,-3 -1.30536,0 -2.39817,0.84052 -2.8125,2 h -8.375 c -0.41433,-1.15948 -1.50714,-2 -2.8125,-2 z" opacity=".2"/><path id="rect3804" fill="url(#linearGradient3825)" fill-opacity="1" stroke="none" d="m 388.57144,529.798 -10e-6,14 h 40 l 10e-6,-14 z"/><path id="path3829" fill="#4d4d4d" fill-opacity="1" stroke="none" d="m 411.38393,537.798 h 8.375 c 0.41433,1.15948 1.50714,2 2.8125,2 1.662,0 3,-1.338 3,-3 0,-1.662 -1.338,-3 -3,-3 -1.30536,0 -2.39817,0.84052 -2.8125,2 h -8.375 c 0.1875,1 0.1875,1 0,2 z" opacity=".779"/><path id="path3845" fill="url(#linearGradient3847)" fill-opacity="1" stroke="none" d="m 406.66666,539.13133 4.76191,4.66667 h 8.14286 l -9.14286,-9.42857 z" opacity=".2"/><path id="path3835" fill="url(#linearGradient3843)" fill-opacity="1" stroke="none" d="m 392.57143,539.13133 4.61905,4.66667 h 13.38095 l -4.86671,-6.9365 -7.13329,-0.0675 -2.23809,-2.42461 z" opacity=".2"/><path id="rect3812" fill="#d35400" fill-opacity="1" stroke="none" d="m 394.57143,533.798 c -1.662,0 -3,1.338 -3,3 0,1.662 1.338,3 3,3 1.30536,0 2.39817,-0.84052 2.8125,-2 h 8.375 c 0.41433,1.15948 1.50714,2 2.8125,2 1.662,0 3,-1.338 3,-3 0,-1.662 -1.338,-3 -3,-3 -1.30536,0 -2.39817,0.84052 -2.8125,2 h -8.375 c -0.41433,-1.15948 -1.50714,-2 -2.8125,-2 z"/><rect id="rect3827" width="40" height="1" x="388.571" y="542.798" fill="#95a5a6" fill-opacity="1" stroke="none" ry="0"/><rect id="rect3855" width="40" height="1" x="388.571" y="529.798" fill="#eff0f1" fill-opacity="1" stroke="none" ry="0"/><path id="path4184" fill="url(#linearGradient3080)" fill-opacity="1" fill-rule="evenodd" stroke="none" d="m 409.57143,513.798 v 1 l -1,9 20.00001,19 v 0 0 l -10e-6,-1 10e-6,-13 -19.00001,-19 z" opacity=".2"/><path id="path3938" fill="#fcfcfc" fill-opacity="1" fill-rule="nonzero" stroke="none" stroke-dasharray="none" stroke-dashoffset="0" stroke-linecap="butt" stroke-linejoin="miter" stroke-miterlimit="4" stroke-opacity="1" stroke-width="2" d="m 406.57143,509.798 v 10 l -4.5,-4.5 -1.5,1.5 7,7 7,-7 -1.5,-1.5 -4.5,4.5 v -10 z" baseline-shift="baseline" clip-rule="nonzero" color="#000" color-interpolation="sRGB" color-interpolation-filters="linearRGB" color-rendering="auto" direction="ltr" display="inline" enable-background="accumulate" font-family="sans-serif" font-size="medium" font-stretch="normal" font-style="normal" font-variant="normal" font-weight="normal" image-rendering="auto" letter-spacing="normal" opacity="1" overflow="visible" shape-rendering="auto" text-anchor="start" text-decoration="none" text-rendering="auto" visibility="visible" word-spacing="normal" writing-mode="lr-tb" style="line-height:normal;text-indent:0;text-align:start;text-decoration-line:none;text-decoration-style:solid;text-decoration-color:#000;text-transform:none;white-space:normal;isolation:auto;mix-blend-mode:normal;solid-color:#000;solid-opacity:1"/><g id="g3862" transform="matrix(0.07257427,0,0,0.07857465,405.44841,485.92303)"><path id="path2985" fill="#00548b" fill-opacity="1" stroke="#143b69" stroke-opacity="1" stroke-width="1.042" d="m 190.84375,199.21875 c -70.69245,0 -128,57.30755 -128,128 0,70.69245 57.30755,128 128,128 70.69245,0 128,-57.30755 128,-128 0,-70.69245 -57.30755,-128 -128,-128 z m -64.5625,54.65625 h 127.75 c 6.71549,0 12.125,5.40951 12.125,12.125 v 127.75 c 0,6.71549 -5.40951,12.125 -12.125,12.125 h -127.75 c -6.71549,0 -12.125,-5.40951 -12.125,-12.125 V 266 c 0,-6.71549 5.40951,-12.125 12.125,-12.125 z" clip-path="none" filter="url(#filter3845)"/><g id="layer4" transform="matrix(3.0576213,0,0,3.0576213,43.189537,180.55344)"><path id="path3914" fill="#143b69" fill-opacity="1" fill-rule="nonzero" stroke="none" stroke-width="1" d="M 36,31.03125 A 0.95511873,0.95511873 0 0 0 35.03125,32 V 66 A 0.95511873,0.95511873 0 0 0 36,66.96875 H 46 A 0.95511873,0.95511873 0 0 0 46.96875,66 V 54.96875 H 58 A 0.95511873,0.95511873 0 0 0 58.96875,54 V 46 A 0.95511873,0.95511873 0 0 0 58,45.03125 H 46.96875 v -4.0625 H 62 A 0.95511873,0.95511873 0 0 0 62.96875,40 V 32 A 0.95511873,0.95511873 0 0 0 62,31.03125 Z" color="#000" display="inline" enable-background="accumulate" overflow="visible" visibility="visible" style="marker:none"/><path id="rect2922" fill="#00548b" fill-opacity="1" fill-rule="nonzero" stroke="none" stroke-width="1" d="M 36,32 V 66 H 46 V 54 H 58 V 46 H 46 v -6 h 16 v -8 z" color="#000" display="inline" enable-background="accumulate" overflow="visible" visibility="visible" style="marker:none"/></g></g></g></svg>